<svg xmlns="http://www.w3.org/2000/svg" width="100" height="100" viewBox="0 0 512 512" version="1.1">
	<path d="M 149.546 67.525 C 126.423 71.274, 109.135 80.052, 96.124 94.650 C 90.332 101.148, 82.692 115.723, 80.497 124.460 C 77.489 136.433, 79.340 150.179, 85.366 160.630 L 87.747 164.759 83.934 165.902 C 78.882 167.415, 70.645 176.631, 68.272 183.424 C 65.636 190.974, 65.892 210.102, 68.829 225 C 77.124 267.086, 91.025 311.871, 97.938 318.784 C 100.498 321.344, 100.796 322.417, 101.349 331.045 C 101.682 336.245, 102.238 342.178, 102.584 344.229 C 103.110 347.340, 102.772 348.482, 100.546 351.128 C 90.354 363.240, 86.236 384.779, 91.796 396.900 C 93.655 400.953, 93.702 401.664, 92.396 405.900 C 89.547 415.142, 89.413 414.502, 94.680 416.752 C 106.103 421.631, 124.453 426.114, 140.541 427.957 C 153.727 429.468, 191.369 429.220, 206.500 427.523 C 227.244 425.196, 251.574 420.023, 260.729 415.993 L 264.958 414.131 263.592 410.316 C 262.841 408.217, 261.696 405.355, 261.047 403.956 C 260.068 401.847, 260.225 400.504, 261.960 396.103 C 264.977 388.448, 265.550 380.694, 263.647 373.267 C 262.070 367.112, 256.471 354.938, 252.874 349.846 C 250.620 346.653, 250.545 344.380, 252.449 337.066 C 253.247 334.005, 254.157 329.864, 254.473 327.865 L 255.047 324.230 263.278 332.591 C 268.984 338.387, 272.478 341.146, 274.670 341.584 C 277.683 342.187, 277.886 342.530, 278.972 348.858 C 279.598 352.511, 280.767 358.062, 281.568 361.193 L 283.025 366.886 279.467 373.359 C 275.203 381.115, 274.310 384.028, 273.008 394.405 C 271.860 403.561, 273.005 413.037, 276.009 419.255 C 277.914 423.197, 277.914 423.336, 276.014 430.194 L 274.089 437.139 277.794 438.694 C 294.033 445.505, 324.847 445.576, 364.485 438.893 C 387.904 434.945, 401.068 431.345, 421.327 423.349 C 428.932 420.348, 436.254 417.474, 437.598 416.963 L 440.042 416.034 436.400 408.800 L 432.757 401.567 433.982 394.715 C 435.471 386.378, 434.735 380.661, 431.026 371.782 C 428.331 365.328, 421.213 354.240, 416.402 349 C 414.284 346.693, 414.094 345.528, 413.945 333.923 C 413.803 322.938, 414.048 320.827, 415.875 317.245 C 424.984 299.389, 436.119 216.620, 432.965 190.205 C 429.163 158.363, 411.634 135.693, 383.254 125.912 C 367.582 120.511, 333.373 118.971, 305.653 122.417 C 298.037 123.364, 291.704 123.995, 291.580 123.820 C 291.456 123.644, 290.574 121.392, 289.620 118.816 C 285.792 108.481, 276.065 96.254, 264.117 86.760 C 252.004 77.134, 239.279 71.655, 221.500 68.409 C 208.718 66.076, 162.023 65.502, 149.546 67.525 M 156.711 79.561 C 145.178 81.356, 132.811 85.691, 125.634 90.455 C 117.308 95.981, 116.674 97.291, 117.181 107.908 C 117.557 115.772, 117.932 117.222, 120.435 120.504 C 126.017 127.822, 134.120 129.102, 154.177 125.834 C 172.540 122.842, 206.687 122.573, 222 125.300 C 233.756 127.394, 239.268 127.441, 243.393 125.484 C 248.226 123.190, 250.296 118.868, 250.283 111.097 C 250.253 93.294, 237.666 83.998, 207.500 79.502 C 195.125 77.658, 168.746 77.689, 156.711 79.561 M 315.500 125.627 C 276.167 129.600, 251.792 141.572, 241.677 161.884 C 238.594 168.077, 238 170.302, 238 175.666 C 238 181.300, 239.970 189, 241.411 189 C 241.694 189, 241.658 186.146, 241.333 182.658 C 240.958 178.647, 241.208 174.901, 242.012 172.464 C 243.286 168.604, 250.738 159.746, 254.329 157.824 C 256.525 156.649, 256.297 157.153, 251.837 163.355 C 250.313 165.476, 248.150 169.655, 247.032 172.643 C 244.767 178.698, 244.279 183.298, 246.412 178.500 C 249.284 172.037, 260.149 164.048, 268 162.625 C 271.402 162.009, 271.360 162.072, 266.500 164.874 C 263.750 166.459, 259.345 170.060, 256.712 172.876 C 251.310 178.652, 244.980 190.906, 245.039 195.472 L 245.078 198.500 246.407 195.450 C 249.552 188.228, 260.325 182.282, 269 182.979 C 271.215 183.157, 271.109 183.293, 268.071 184.165 C 262.815 185.675, 256.405 190.550, 251.992 196.394 C 247.160 202.795, 246.844 204.475, 251.250 200.347 C 255.368 196.489, 259.082 194, 260.723 194 C 262.730 194, 262.215 195.797, 260.006 196.498 C 256.230 197.697, 255.057 199.712, 256.075 203.251 C 256.590 205.038, 257.911 212.729, 259.011 220.342 C 264.193 256.182, 273.053 291.580, 279.674 302.894 C 282.943 308.478, 291.476 317.678, 295.150 319.578 C 297.672 320.882, 298.091 320.745, 302.346 317.231 C 313.542 307.985, 325.521 302.777, 340.942 300.453 C 351.992 298.787, 369.446 298.598, 379.400 300.037 C 383.194 300.585, 386.407 300.914, 386.540 300.767 C 386.832 300.444, 391.604 254.870, 392.955 239.500 C 394.864 217.793, 395.249 199.601, 394.072 186.722 C 391.768 161.519, 386.024 147.027, 373.698 135.318 C 368.429 130.313, 365.087 127.973, 361.921 127.071 C 357.582 125.835, 323.830 124.785, 315.500 125.627 M 86.555 175.299 C 85.007 178.463, 83.720 183.197, 83.360 187.050 C 81.602 205.871, 95.541 227.145, 106.835 222.879 C 111.012 221.302, 114.933 216.963, 116.101 212.626 C 117.467 207.554, 118.491 209.057, 120.083 218.474 C 122.042 230.059, 120.545 269.662, 117.476 287.463 L 116.965 290.427 120.580 286.963 C 125.314 282.427, 132.505 272.356, 137.296 263.551 L 141.133 256.500 140.533 260.882 C 139.839 265.962, 135.026 277.750, 131.793 282.290 C 129.717 285.206, 129.704 285.319, 131.598 283.958 C 134.896 281.590, 143.242 271.904, 146.845 266.264 C 156.287 251.485, 158.918 227.909, 153.470 206.886 C 150.982 197.284, 150.046 195.770, 147.062 196.530 C 135.932 199.363, 128.889 198.706, 119.828 193.990 C 116.668 192.346, 113.838 191, 113.541 191 C 113.243 191, 112.990 192.238, 112.978 193.750 C 112.951 197.111, 109.495 205, 108.049 205 C 107.472 205, 107 204.123, 107 203.052 C 107 199.894, 101.979 184.796, 99.667 181 C 97.124 176.826, 91.099 170, 89.957 170 C 89.512 170, 87.981 172.384, 86.555 175.299 M 217.500 182.867 C 204.704 188.700, 199.277 200.014, 200.231 218.868 C 200.865 231.404, 203.546 239.246, 215.488 263.500 C 225.417 283.665, 235.799 300.388, 243.451 308.542 C 249 314.453, 248.398 313.005, 239.276 298.500 C 225.146 276.032, 211.613 249.733, 206.342 234.500 C 203.930 227.528, 203.570 224.958, 203.537 214.500 C 203.505 204.036, 203.797 201.843, 205.823 197.368 C 207.100 194.545, 209.487 190.950, 211.127 189.379 L 214.108 186.522 211.304 192.511 C 208.881 197.686, 208.501 199.724, 208.505 207.500 C 208.509 213.580, 209.096 218.183, 210.315 221.687 C 213.794 231.688, 224.037 245.177, 232.657 251.108 C 234.969 252.699, 237.051 254, 237.284 254 C 237.517 254, 237.098 251.652, 236.354 248.782 C 234.698 242.400, 234.600 229.327, 236.149 221.612 L 237.298 215.890 233.701 212.195 C 226.695 204.997, 223.443 194.318, 225.345 184.750 C 226.034 181.286, 225.916 181.002, 223.795 181.022 C 222.533 181.034, 219.700 181.864, 217.500 182.867 M 170.619 226.500 C 168.530 246.744, 154.468 272.139, 133.027 294.385 C 122.181 305.638, 123.391 305.548, 140.667 293.821 C 165.029 277.283, 175.450 258.370, 173.609 234.032 C 173.254 229.340, 172.598 224.150, 172.152 222.500 C 171.452 219.911, 171.242 220.459, 170.619 226.500 M 185.967 248.103 C 182.729 255.059, 173.431 270.829, 170.697 274 C 169.512 275.375, 171.142 274.025, 174.319 271 C 181.459 264.201, 185.340 258.231, 187.495 250.730 C 189.737 242.928, 188.981 241.628, 185.967 248.103 M 188.500 293.479 C 187.950 293.655, 184.125 294.566, 180 295.502 C 172.142 297.286, 158 302.680, 158 303.893 C 158 304.282, 160.813 305.178, 164.250 305.885 C 167.688 306.592, 172.959 308.032, 175.965 309.085 C 182.520 311.382, 182.565 311.386, 181.036 309.544 C 180.372 308.743, 180.127 307.604, 180.493 307.012 C 180.858 306.421, 186.522 303.247, 193.079 299.961 C 199.635 296.674, 205 293.763, 205 293.492 C 205 292.961, 190.152 292.949, 188.500 293.479 M 339.655 308.536 C 323.332 311.611, 303.863 320.089, 295 327.981 L 290.500 331.987 303.136 325.473 C 316.853 318.400, 325.470 315.093, 338.859 311.760 C 352.832 308.281, 381.301 308.750, 395.500 312.693 C 396.600 312.999, 397.203 312.933, 396.840 312.548 C 396.477 312.162, 392.877 310.943, 388.840 309.838 C 378.903 307.119, 351.087 306.382, 339.655 308.536 M 131.092 318.908 C 122.834 323.376, 119.903 325.718, 124 324.574 C 125.375 324.190, 138.200 323.660, 152.500 323.396 C 175.777 322.966, 178.231 323.071, 175.934 324.393 C 173 326.083, 164.629 328.124, 151.192 330.425 C 140.326 332.287, 127.048 337.134, 123.198 340.646 L 120.500 343.106 123.733 341.536 C 125.511 340.673, 129.111 339.710, 131.733 339.396 L 136.500 338.826 131.322 341.892 C 125.375 345.414, 123.333 347.701, 127.094 346.629 C 132.447 345.103, 143.240 343.029, 156.500 340.978 C 170.928 338.746, 177.734 336.523, 181.840 332.701 C 183.140 331.491, 185.950 327.038, 188.085 322.807 L 191.965 315.113 187.733 317.035 C 182.583 319.372, 176.681 319.491, 166.338 317.464 C 162.027 316.620, 154 315.697, 148.500 315.414 L 138.500 314.900 131.092 318.908 M 343 323.987 C 326.714 328.305, 312.559 337.449, 305.056 348.500 C 300.488 355.228, 300.414 355.573, 304.053 353.158 C 313.735 346.735, 329.079 341.421, 350.906 336.934 C 369.355 333.141, 384.705 332.149, 390.961 334.345 C 393.414 335.207, 395.570 335.764, 395.750 335.583 C 396.684 334.649, 385.336 325.947, 381.244 324.460 C 373.681 321.711, 352.568 321.450, 343 323.987 M 368 341.695 C 344.811 344.178, 314.543 355.026, 304.343 364.510 L 299.500 369.012 304.850 365.506 C 309.980 362.145, 312 361.320, 312 362.588 C 312 362.911, 308.411 367.047, 304.025 371.779 C 299.638 376.511, 296.209 380.543, 296.405 380.738 C 296.600 380.934, 298.888 379.658, 301.489 377.903 C 317.716 366.951, 373.057 350.121, 389.197 351.229 L 394.894 351.620 391.197 348.339 C 383.815 341.787, 379.278 340.487, 368 341.695 M 149.500 348.923 C 146.616 349.583, 146.674 349.636, 151 350.297 C 153.475 350.675, 164.725 351.439, 176 351.995 C 187.275 352.550, 198.750 353.263, 201.500 353.578 C 206.212 354.119, 220.113 357.092, 224.500 358.497 C 225.913 358.950, 225.766 358.683, 224 357.587 C 219.200 354.610, 206.406 351.185, 194.158 349.598 C 181.813 348, 155.290 347.598, 149.500 348.923 M 118.417 357.514 L 114.500 361.029 118.414 358.819 L 122.328 356.609 123.914 359.031 C 127.335 364.255, 131.255 367.929, 134.578 369.026 C 136.876 369.784, 150.353 370.258, 174.278 370.421 C 203.621 370.622, 211.638 370.971, 216.492 372.259 C 219.787 373.134, 222.602 373.731, 222.747 373.587 C 222.892 373.442, 220.791 372.116, 218.080 370.640 C 210.552 366.543, 200.485 364.400, 170.226 360.454 C 154.977 358.465, 139.125 356.199, 135 355.419 C 124.190 353.374, 122.841 353.545, 118.417 357.514 M 337.103 368.186 C 333.705 369.939, 329.113 372.923, 326.900 374.818 C 321.827 379.160, 310.005 396.440, 312.660 395.633 C 313.672 395.325, 316.750 394.589, 319.500 393.996 C 322.250 393.404, 331.883 390.457, 340.907 387.447 C 364.879 379.451, 374.452 377.687, 390.727 378.271 L 403.953 378.745 399.721 375.513 C 390.613 368.558, 385.406 366.649, 374.309 366.195 C 365.477 365.833, 362.878 366.133, 354.828 368.442 C 349.720 369.907, 342.943 372.155, 339.770 373.437 C 336.596 374.719, 334 375.414, 334 374.982 C 334 374.550, 336.784 372.127, 340.188 369.598 C 347.372 364.259, 345.966 363.615, 337.103 368.186 M 132 412.573 C 153.284 417.846, 175.900 419.916, 193 418.155 C 205.567 416.861, 219.210 414.876, 218.743 414.410 C 218.559 414.225, 210.229 414.582, 200.233 415.203 C 179.780 416.474, 160.154 415.481, 137.160 412.012 C 129.823 410.906, 123.523 410.049, 123.160 410.109 C 122.797 410.170, 126.775 411.278, 132 412.573 M 401.500 411.516 C 400.950 411.714, 394.200 412.368, 386.500 412.971 C 369.870 414.272, 357.288 416.023, 335 420.138 C 325.925 421.813, 313.775 424.024, 308 425.051 L 297.500 426.918 314 426.525 C 325.875 426.242, 335.826 425.287, 349.500 423.117 C 372.721 419.433, 393.004 415.641, 403 413.115 C 409.527 411.466, 409.981 411.216, 406.500 411.189 C 404.300 411.172, 402.050 411.319, 401.500 411.516" stroke="none" fill="black" fill-rule="evenodd"/>
</svg>